<?xml version="1.0" encoding="UTF-8"?>
<svg version="1.1" xmlns="http://www.w3.org/2000/svg" width="512" height="512" viewBox="0 0 512 512">
<path d="M0 0 C1.43605591 -0.00639748 1.43605591 -0.00639748 2.90112305 -0.01292419 C3.95512802 -0.01247101 5.009133 -0.01201782 6.09507751 -0.0115509 C7.20257355 -0.01490952 8.31006958 -0.01826813 9.4511261 -0.02172852 C13.13055021 -0.03126486 16.8099289 -0.03318332 20.48936462 -0.03425598 C23.04327412 -0.03746796 25.59718343 -0.04083198 28.15109253 -0.04434204 C33.51540121 -0.0503409 38.8796929 -0.05222403 44.2440033 -0.05158997 C50.42869195 -0.05099086 56.6132929 -0.06150776 62.79795939 -0.07733363 C68.75772848 -0.09203672 74.71747108 -0.09557653 80.67725945 -0.09498024 C83.20692235 -0.0961586 85.73658593 -0.10057228 88.26623726 -0.10831261 C91.81342371 -0.11814539 95.36038723 -0.11522075 98.90757751 -0.10920715 C100.46733055 -0.11763641 100.46733055 -0.11763641 102.05859375 -0.12623596 C116.83170626 -0.06281865 128.5204144 4.58147649 139.27061462 14.91886902 C139.99120056 15.64976746 140.7117865 16.38066589 141.45420837 17.13371277 C142.04073181 17.70992371 142.62725525 18.28613464 143.23155212 18.87980652 C152.69235672 28.91837017 155.06008464 42.21753215 154.76670837 55.48136902 C154.0769013 69.48732688 147.77653723 82.64032811 137.45420837 92.13371277 C126.89298973 99.97048958 117.18110657 104.24026066 103.98350525 104.27555847 C102.89937096 104.28077011 102.89937096 104.28077011 101.79333496 104.28608704 C100.23340615 104.29340394 98.6734672 104.29877082 97.11352539 104.3023777 C94.64134934 104.30958619 92.16936687 104.32528312 89.69725037 104.34371948 C82.67176384 104.3959978 75.64638938 104.4441814 68.62071228 104.4596405 C64.31474058 104.46973372 60.0092662 104.499083 55.70349121 104.54096031 C54.06732955 104.55324708 52.43109763 104.55839581 50.79489136 104.55616188 C48.50435902 104.55380294 46.21525092 104.57601462 43.9249115 104.60368347 C41.97349243 104.61248283 41.97349243 104.61248283 39.98265076 104.62145996 C34.89695568 105.35979187 31.73384302 107.51089128 28.57530212 111.51652527 C28.01971619 112.42144714 27.46413025 113.32636902 26.89170837 114.25871277 C19.08090197 126.46495396 10.48596884 138.0633281 1.26011658 149.23429871 C-2.47805011 153.77297874 -6.04928342 158.40683439 -9.54579163 163.13371277 C-14.09275902 169.27680441 -18.83045462 175.22581954 -23.68592834 181.12712097 C-27.48259888 185.76428016 -31.10718732 190.5033402 -34.67079163 195.32121277 C-38.51830931 200.47995232 -42.38279163 205.62200572 -46.42079163 210.63371277 C-46.84892151 211.19211853 -47.27705139 211.75052429 -47.71815491 212.32585144 C-49.98846627 215.08240619 -51.15517696 216.07640988 -54.74110413 216.60246277 C-57.54579163 216.13371277 -57.54579163 216.13371277 -59.54579163 214.13371277 C-60.13242225 207.61855751 -58.64589724 201.32399537 -57.42079163 194.94621277 C-57.08192932 193.14954163 -57.08192932 193.14954163 -56.73622131 191.3165741 C-54.98799437 182.16349398 -53.05151746 173.05769124 -51.05897522 163.95524597 C-48.1458508 150.52291144 -45.56174323 137.02612449 -42.96864319 123.52897644 C-40.97904848 113.21532349 -38.87260973 102.93660393 -36.63954163 92.67277527 C-34.59761081 83.27217738 -32.69087808 73.85394512 -30.91928101 64.39887238 C-30.5469606 62.41338413 -30.17198693 60.42841512 -29.79615784 58.44358826 C-29.54601101 57.12155111 -29.29588895 55.79950928 -29.04579163 54.47746277 C-28.92203407 53.82331768 -28.79827652 53.16917259 -28.67076874 52.49520493 C-28.03663009 49.13576935 -27.40994511 45.77518315 -26.79579163 42.41203308 C-26.30285416 39.71531415 -25.7993617 37.0209831 -25.28407288 34.32844543 C-24.80762435 31.83817865 -24.34560804 29.34508672 -23.90126038 26.84889221 C-22.24837856 18.37462574 -19.59957023 10.81143329 -13.06141663 4.87980652 C-12.31376038 4.44797058 -11.56610413 4.01613464 -10.79579163 3.57121277 C-10.03782288 3.11617371 -9.27985413 2.66113464 -8.49891663 2.19230652 C-5.35858909 0.49024899 -3.5806513 0.00719053 0 0 Z " fill="#4784F2" transform="translate(206.54579162597656,138.8662872314453)"/>
<path d="M0 0 C11.72660705 -0.13921663 23.45301646 -0.24573127 35.18028259 -0.31087303 C40.62618262 -0.34214314 46.07151594 -0.38453765 51.51708984 -0.45263672 C56.77558944 -0.51798243 62.03354505 -0.55373853 67.29241943 -0.56926346 C69.29547689 -0.58032246 71.29850564 -0.60191864 73.30133057 -0.63438034 C76.1142942 -0.67814626 78.92503019 -0.68392576 81.73828125 -0.68115234 C82.56043625 -0.702724 83.38259125 -0.72429565 84.22966003 -0.746521 C90.62997375 -0.67855306 94.42462743 1.59901601 99 6 C101.09088813 8.47423557 102.90678675 11.04562659 104.6875 13.75 C105.71221687 15.25480924 106.73830838 16.75868313 107.765625 18.26171875 C108.29091797 19.03692871 108.81621094 19.81213867 109.35742188 20.61083984 C112.65043392 25.40058655 116.11124477 30.07137157 119.54760742 34.75878906 C122.06429944 38.21849359 124.5311285 41.70690483 126.8828125 45.28125 C127.29289551 45.90193359 127.70297852 46.52261719 128.12548828 47.16210938 C129.61810146 50.29901391 128.9813386 52.7942939 128 56 C125.42680497 57.28659752 123.55245809 57.14816512 120.67089844 57.17700195 C119.55503357 57.18983719 118.4391687 57.20267242 117.28948975 57.21589661 C115.46783295 57.22697701 115.46783295 57.22697701 113.609375 57.23828125 C112.35803772 57.246353 111.10670044 57.25442474 109.81744385 57.26274109 C107.15755504 57.27660135 104.49779089 57.28760867 101.83789062 57.29516602 C99.13388059 57.30395941 96.43039568 57.32466756 93.7265625 57.35668945 C89.81234401 57.39970548 85.89880163 57.41558889 81.984375 57.42578125 C80.79422791 57.44328934 79.60408081 57.46079742 78.37786865 57.47883606 C66.84344787 57.44958669 56.02401588 54.62462571 45.8125 49.25 C45.14524902 48.90565918 44.47799805 48.56131836 43.79052734 48.20654297 C26.98993862 39.31496785 16.79581521 27.51321494 7.43756104 11.39241028 C5.97061336 8.95109431 4.42285301 6.58514517 2.83496094 4.22094727 C2.30191345 3.425923 1.76886597 2.63089874 1.21966553 1.81178284 C0.8171759 1.2138945 0.41468628 0.61600616 0 0 Z " fill="#4885F2" transform="translate(239,298)"/>
<path d="M0 0 C1.08471085 -0.00145523 2.16942169 -0.00291046 3.28700256 -0.00440979 C5.57572115 -0.00275347 7.86445117 0.00877777 10.15307617 0.02954102 C13.64485316 0.05846698 17.13510806 0.05014875 20.62695312 0.03710938 C22.85547609 0.0433482 25.08399428 0.05174026 27.3125 0.0625 C28.35123764 0.05956436 29.38997528 0.05662872 30.46018982 0.05360413 C36.82342876 0.13586782 42.45977912 0.48897659 47.3671875 5.01171875 C47.75261719 5.5840625 48.13804687 6.15640625 48.53515625 6.74609375 C49.24478516 7.77669922 49.24478516 7.77669922 49.96875 8.828125 C50.54753906 9.70855469 51.12632812 10.58898437 51.72265625 11.49609375 C52.5872929 12.77168068 53.45329315 14.0463439 54.3203125 15.3203125 C61.72265625 26.26143309 61.72265625 26.26143309 61.72265625 27.49609375 C30.37265625 27.49609375 -0.97734375 27.49609375 -33.27734375 27.49609375 C-25.13360911 14.69879645 -25.13360911 14.69879645 -21.71484375 10.05859375 C-20.66103516 8.60646484 -20.66103516 8.60646484 -19.5859375 7.125 C-13.56263852 0.26598102 -8.82088509 -0.09521259 0 0 Z " fill="#4783F1" transform="translate(261.27734375,256.50390625)"/>
</svg>
